<svg width="1419" height="904" viewBox="0 0 1419 904" fill="none" xmlns="http://www.w3.org/2000/svg">
  <g filter="url(#filter0_b_52_19457)">
    <mask id="path-1-inside-1_52_19457" fill="white">
      <path fill-rule="evenodd" clip-rule="evenodd"
        d="M413.9 0.774414L0.800049 0.774414L0.800049 903.924L1418.3 903.924V0.774414L1009.25 0.774414L968.75 53.4245L454.4 53.4245L413.9 0.774414Z" />
    </mask>
    <path fill-rule="evenodd" clip-rule="evenodd"
      d="M413.9 0.774414L0.800049 0.774414L0.800049 903.924L1418.3 903.924V0.774414L1009.25 0.774414L968.75 53.4245L454.4 53.4245L413.9 0.774414Z"
      fill="white" fill-opacity="0.05" />
    <path
      d="M0.800049 0.774414L0.800049 -1.25059H-1.22495V0.774414L0.800049 0.774414ZM413.9 0.774414L415.505 -0.46025L414.897 -1.25059H413.9V0.774414ZM0.800049 903.924H-1.22495V905.949H0.800049L0.800049 903.924ZM1418.3 903.924V905.949H1420.33V903.924H1418.3ZM1418.3 0.774414L1420.33 0.774414V-1.25059L1418.3 -1.25059V0.774414ZM1009.25 0.774414V-1.25059H1008.25L1007.64 -0.46025L1009.25 0.774414ZM968.75 53.4245V55.4495H969.747L970.355 54.6592L968.75 53.4245ZM454.4 53.4245L452.795 54.6592L453.403 55.4495H454.4V53.4245ZM0.800049 2.79941L413.9 2.79941V-1.25059L0.800049 -1.25059L0.800049 2.79941ZM2.82505 903.924L2.82505 0.774414L-1.22495 0.774414L-1.22495 903.924H2.82505ZM1418.3 901.899L0.800049 901.899L0.800049 905.949L1418.3 905.949V901.899ZM1416.28 0.774414V903.924H1420.33V0.774414L1416.28 0.774414ZM1009.25 2.79941L1418.3 2.79941V-1.25059L1009.25 -1.25059V2.79941ZM1007.64 -0.46025L967.145 52.1898L970.355 54.6592L1010.85 2.00908L1007.64 -0.46025ZM968.75 51.3995L454.4 51.3995V55.4495L968.75 55.4495V51.3995ZM456.005 52.1898L415.505 -0.46025L412.295 2.00908L452.795 54.6592L456.005 52.1898Z"
      fill="#FFEA5A" fill-opacity="0.3" mask="url(#path-1-inside-1_52_19457)" />
    <path
      d="M0.800049 0.774414L0.800049 -1.25059H-1.22495V0.774414L0.800049 0.774414ZM413.9 0.774414L415.505 -0.46025L414.897 -1.25059H413.9V0.774414ZM0.800049 903.924H-1.22495V905.949H0.800049L0.800049 903.924ZM1418.3 903.924V905.949H1420.33V903.924H1418.3ZM1418.3 0.774414L1420.33 0.774414V-1.25059L1418.3 -1.25059V0.774414ZM1009.25 0.774414V-1.25059H1008.25L1007.64 -0.46025L1009.25 0.774414ZM968.75 53.4245V55.4495H969.747L970.355 54.6592L968.75 53.4245ZM454.4 53.4245L452.795 54.6592L453.403 55.4495H454.4V53.4245ZM0.800049 2.79941L413.9 2.79941V-1.25059L0.800049 -1.25059L0.800049 2.79941ZM2.82505 903.924L2.82505 0.774414L-1.22495 0.774414L-1.22495 903.924H2.82505ZM1418.3 901.899L0.800049 901.899L0.800049 905.949L1418.3 905.949V901.899ZM1416.28 0.774414V903.924H1420.33V0.774414L1416.28 0.774414ZM1009.25 2.79941L1418.3 2.79941V-1.25059L1009.25 -1.25059V2.79941ZM1007.64 -0.46025L967.145 52.1898L970.355 54.6592L1010.85 2.00908L1007.64 -0.46025ZM968.75 51.3995L454.4 51.3995V55.4495L968.75 55.4495V51.3995ZM456.005 52.1898L415.505 -0.46025L412.295 2.00908L452.795 54.6592L456.005 52.1898Z"
      fill="url(#paint0_radial_52_19457)" fill-opacity="0.2" mask="url(#path-1-inside-1_52_19457)" />
  </g>
  <defs>
    <filter id="filter0_b_52_19457" x="-248.5" y="-248.526" width="1916.1" height="1401.75" filterUnits="userSpaceOnUse"
      color-interpolation-filters="sRGB">
      <feFlood flood-opacity="0" result="BackgroundImageFix" />
      <feGaussianBlur in="BackgroundImageFix" stdDeviation="124.65" />
      <feComposite in2="SourceAlpha" operator="in" result="effect1_backgroundBlur_52_19457" />
      <feBlend mode="normal" in="SourceGraphic" in2="effect1_backgroundBlur_52_19457" result="shape" />
    </filter>
    <radialGradient id="paint0_radial_52_19457" cx="0" cy="0" r="1" gradientUnits="userSpaceOnUse"
      gradientTransform="translate(709.55 452.349) rotate(90) scale(451.575 708.75)">
      <stop stop-color="#FF8A00" />
      <stop offset="1" stop-color="white" stop-opacity="0" />
    </radialGradient>
  </defs>
</svg>